<svg id="Layer_1" data-name="Layer 1" xmlns="http://www.w3.org/2000/svg" xmlns:xlink="http://www.w3.org/1999/xlink" viewBox="0 0 49.53 182.29"><defs><style>.cls-1{fill:#767b8b;}.cls-2{fill:#b06a7d;}.cls-3{fill:#8c323e;}.cls-4{fill:url(#radial-gradient);}.cls-5{fill:url(#linear-gradient);}.cls-11,.cls-13,.cls-6,.cls-7,.cls-8,.cls-9{fill:none;stroke-miterlimit:10;}.cls-6,.cls-9{stroke-width:0.5px;}.cls-6{stroke:url(#radial-gradient-2);}.cls-11,.cls-7,.cls-8{stroke-width:0.25px;}.cls-7{stroke:url(#radial-gradient-3);}.cls-8{stroke:#b06a7d;}.cls-11,.cls-9{stroke:#6e6e6e;}.cls-10{fill:#6e6e6e;}.cls-12{fill:#00879b;}.cls-13{stroke:#00879b;}</style><radialGradient id="radial-gradient" cx="-106.79" cy="-317.83" r="58.75" gradientTransform="matrix(1, 0, 0, 1, 133.46, 410.56)" gradientUnits="userSpaceOnUse"><stop offset="0" stop-color="#fff"/><stop offset="0.02" stop-color="#fcf5f5"/><stop offset="0.12" stop-color="#ebc3c3"/><stop offset="0.22" stop-color="#dc9696"/><stop offset="0.33" stop-color="#d07171"/><stop offset="0.45" stop-color="#c65252"/><stop offset="0.56" stop-color="#be3b3b"/><stop offset="0.69" stop-color="#b82a2a"/><stop offset="0.83" stop-color="#b52020"/><stop offset="1" stop-color="#b41d1d"/></radialGradient><linearGradient id="linear-gradient" x1="-125.35" y1="-329.85" x2="-85.5" y2="-329.85" gradientTransform="matrix(1, 0, 0, 1, 133.46, 410.56)" gradientUnits="userSpaceOnUse"><stop offset="0.08" stop-color="#fff"/><stop offset="0.56" stop-color="#909090"/></linearGradient><radialGradient id="radial-gradient-2" cx="-105.9" cy="-282.82" r="6.81" gradientTransform="translate(132.09 411.08)" gradientUnits="userSpaceOnUse"><stop offset="0.08" stop-color="#fff"/><stop offset="0.19" stop-color="#f9f9f9"/><stop offset="0.34" stop-color="#e8e8e8"/><stop offset="0.5" stop-color="#cdcdcd"/><stop offset="0.68" stop-color="#a7a7a7"/><stop offset="0.77" stop-color="#909090"/></radialGradient><radialGradient id="radial-gradient-3" cx="-106.28" cy="-282.14" r="16.24" xlink:href="#radial-gradient-2"/></defs><title>train</title><path class="cls-1" d="M4,18l.88,151s-.44,3.52,6,4.25,34.48.22,34.84-1.31,1,1.52.69-14.45C46.14,142.22,45,16.72,45,16.72s.28-5.65-6-5-29.66-.17-29.66-.17A6,6,0,0,0,4,17.07"/><path class="cls-2" d="M25.42,174.35l.25-11.93s1.68-.31,2,.15.51,11.23.51,11.23v.76Z"/><path class="cls-3" d="M8.75,14.76s-3.53-2,10.84-1.74,20.18.37,20.18.37"/><path class="cls-4" d="M8.83,63.83,8.9,13.69s-2.76-1.82,5.95-1.87,25.68.19,24.92.34.6-2.14.78,3.21.69,47.23.69,47.23l-.1,107.62s.78,2-7.32,2.33-4.74.33-4.74.33l-.76,1.53-2.44.32-1.54-2-9.47.35s-4,1.55-4.22-2,.09-14.14.09-14.14Z"/><path class="cls-5" d="M6.55,89.52,6.8,69s-2.66-4.69,7.77-5.08,8.48-.16,8.48-.16,1.47-3.79,3.76-4.15c0,0,2.17-1.5,4,3.19C36.92,63,43.92,64.23,45,65s1-1,1.28,2.4-.08,31.42-.08,31.42L45.36,101l-9,1.3-3.55.59-.92.12L31,98.8l-6.43-.31L24,102.62l-13.3-.85L7,101.33Z"/><rect class="cls-6" x="20.92" y="120.61" width="10.55" height="15.29" transform="translate(-0.62 0.13) rotate(-0.28)"/><rect class="cls-7" x="13.73" y="109.61" width="24.15" height="38.68" transform="translate(-0.62 0.13) rotate(-0.28)"/><rect class="cls-8" x="16.33" y="148.58" width="20.33" height="20.64" transform="translate(-0.77 0.13) rotate(-0.28)"/><line class="cls-8" x1="16.36" y1="150.7" x2="36.46" y2="150.6"/><line class="cls-8" x1="16.49" y1="152.61" x2="36.55" y2="152.51"/><line class="cls-8" x1="16.67" y1="154.14" x2="36.33" y2="154.04"/><line class="cls-8" x1="16.31" y1="155.74" x2="36.34" y2="155.65"/><line class="cls-8" x1="16.62" y1="156.96" x2="36.34" y2="156.87"/><line class="cls-8" x1="16.71" y1="158.49" x2="36.5" y2="158.4"/><line class="cls-8" x1="16.18" y1="160.25" x2="36.74" y2="160.15"/><line class="cls-8" x1="16.48" y1="162.16" x2="36.6" y2="162.06"/><line class="cls-8" x1="16.5" y1="163.46" x2="36.45" y2="163.36"/><line class="cls-8" x1="16.51" y1="165.14" x2="36.67" y2="164.99"/><line class="cls-8" x1="16.59" y1="167.21" x2="36.77" y2="167.11"/><line class="cls-8" x1="26.52" y1="148.97" x2="26.62" y2="169.07"/><polygon class="cls-9" points="26.21 172.55 24.09 172.62 22.05 178.13 22.06 179.62 31.46 179.29 31.57 177.91 29.83 173.56 29.71 172.42 26.56 172.43 26.21 172.55"/><line class="cls-9" x1="27.91" y1="179.82" x2="28.45" y2="184.58"/><polygon class="cls-10" points="28.89 173.57 27.79 173.57 27.35 174.89 26.15 175.01 26.09 173.98 24.02 173.76 23.96 172.56 29.46 172.42 29.83 173.56 28.89 173.57"/><path class="cls-9" d="M18.22,12.42,16.67,8.3,25.38,8,24,11.32l-.46.69"/><line class="cls-9" x1="21.42" y1="12.02" x2="22.53" y2="3.38"/><polygon class="cls-9" points="15.86 22.92 35.75 22.88 35.66 14.86 15.71 14.95 15.86 22.92"/><line class="cls-11" x1="34.51" y1="15.09" x2="34.55" y2="22.89"/><line class="cls-11" x1="33.74" y1="15.02" x2="33.78" y2="22.82"/><line class="cls-11" x1="32.98" y1="15.02" x2="33.02" y2="22.82"/><line class="cls-11" x1="32.46" y1="15.03" x2="32.5" y2="22.82"/><line class="cls-11" x1="31.89" y1="15.03" x2="31.93" y2="22.82"/><line class="cls-11" x1="31.43" y1="14.92" x2="31.47" y2="22.71"/><line class="cls-11" x1="30.74" y1="14.92" x2="30.78" y2="22.72"/><line class="cls-11" x1="30.17" y1="15.04" x2="30.21" y2="22.83"/><line class="cls-11" x1="29.43" y1="15.04" x2="29.46" y2="22.84"/><line class="cls-11" x1="28.8" y1="15.04" x2="28.83" y2="22.84"/><line class="cls-11" x1="28.16" y1="15.05" x2="28.2" y2="22.84"/><line class="cls-11" x1="27.42" y1="15.05" x2="27.46" y2="22.85"/><line class="cls-11" x1="27.02" y1="15.11" x2="27.06" y2="22.91"/><line class="cls-11" x1="26.27" y1="15.06" x2="26.31" y2="22.85"/><line class="cls-11" x1="25.81" y1="15.06" x2="25.85" y2="22.85"/><line class="cls-11" x1="25.53" y1="15.06" x2="25.57" y2="22.86"/><line class="cls-11" x1="24.95" y1="15.06" x2="24.99" y2="22.86"/><line class="cls-11" x1="24.38" y1="15.06" x2="24.42" y2="22.86"/><line class="cls-11" x1="24.04" y1="15.07" x2="24.08" y2="22.86"/><line class="cls-11" x1="23.64" y1="15.07" x2="23.67" y2="22.86"/><line class="cls-11" x1="23.18" y1="15.07" x2="23.22" y2="22.87"/><line class="cls-11" x1="22.6" y1="15.13" x2="22.64" y2="22.93"/><line class="cls-11" x1="22.09" y1="15.13" x2="22.13" y2="22.93"/><line class="cls-11" x1="21.57" y1="15.08" x2="21.61" y2="22.87"/><line class="cls-11" x1="21" y1="15.14" x2="21.04" y2="22.93"/><line class="cls-11" x1="20.54" y1="15.14" x2="20.58" y2="22.94"/><line class="cls-11" x1="20.08" y1="14.97" x2="20.12" y2="22.77"/><line class="cls-11" x1="19.68" y1="14.97" x2="19.72" y2="22.77"/><line class="cls-11" x1="18.94" y1="14.98" x2="18.97" y2="22.77"/><line class="cls-11" x1="18.42" y1="14.92" x2="18.46" y2="22.72"/><line class="cls-11" x1="18.07" y1="14.87" x2="18.11" y2="22.66"/><line class="cls-11" x1="17.73" y1="14.87" x2="17.77" y2="22.66"/><path class="cls-12" d="M46.1,170.43c-.59,1.91-4,2.16-4,2.16"/><polyline class="cls-13" points="11.54 173.31 11.44 176.06 10.06 176.07 12.7 176.17"/><polyline class="cls-13" points="35.73 173.19 35.63 175.6 33.57 175.72 37.12 175.59"/><line class="cls-13" x1="41.69" y1="173.16" x2="41.7" y2="174.19"/><polyline class="cls-13" points="7.64 172.75 7.07 172.18 7.08 174.82"/></svg>