<svg id="Layer_1" data-name="Layer 1" xmlns="http://www.w3.org/2000/svg" xmlns:xlink="http://www.w3.org/1999/xlink" viewBox="0 0 4441.17 3331.94"><defs><style>.cls-1,.cls-2,.cls-3{fill:none;stroke:#000;stroke-miterlimit:10;}.cls-1{stroke-width:2.04px;}.cls-3{stroke-width:2px;}.cls-4{isolation:isolate;}.cls-5{fill:#6d6d6d;}</style></defs><title>website</title><path class="cls-1" d="M1768.5,1275.1l-1.4-4.1a5.7,5.7,0,0,1,3.8-7.2l7.6-2.3a5.18,5.18,0,0,1,6.7,3.8l.9,4.2" transform="translate(-756.08 -315.29)"/><line class="cls-2" x1="3131.52" y1="975.81" x2="3159.12" y2="970.61"/><line class="cls-2" x1="3166.92" y1="1156.51" x2="3194.42" y2="1151.21"/><line class="cls-2" x1="3202.22" y1="1339.01" x2="3229.72" y2="1333.81"/><line class="cls-2" x1="3238.42" y1="1520.21" x2="3265.92" y2="1514.91"/><line class="cls-2" x1="3273.72" y1="1701.81" x2="3301.22" y2="1696.51"/><line class="cls-2" x1="3308.62" y1="1884.31" x2="3336.12" y2="1879.01"/><line class="cls-2" x1="3342.52" y1="2065.91" x2="3370.02" y2="2060.61"/><line class="cls-2" x1="3378.72" y1="2246.61" x2="3406.22" y2="2241.31"/><line class="cls-2" x1="3414.52" y1="2428.21" x2="3442.02" y2="2422.91"/><line class="cls-2" x1="3399.82" y1="2646.11" x2="3426.22" y2="2655.41"/><line class="cls-2" x1="3276.52" y1="2826.91" x2="3296.32" y2="2846.71"/><line class="cls-2" x1="3081.52" y1="2921.51" x2="3087.12" y2="2949.01"/><line class="cls-2" x1="2885.22" y1="2958.71" x2="2889.62" y2="2986.41"/><line class="cls-2" x1="2688.52" y1="2995.21" x2="2692.82" y2="3022.81"/><line class="cls-2" x1="2492.22" y1="3034.61" x2="2496.62" y2="3062.31"/><line class="cls-2" x1="2296.92" y1="3072.21" x2="2301.22" y2="3099.91"/><line class="cls-2" x1="2099.92" y1="3110.71" x2="2103.92" y2="3138.41"/><line class="cls-2" x1="1902.22" y1="3149.61" x2="1909.12" y2="3176.71"/><line class="cls-2" x1="1706.62" y1="3188.21" x2="1714.02" y2="3215.21"/><line class="cls-2" x1="1706.52" y1="3187.31" x2="1712.52" y2="3214.61"/><line class="cls-2" x1="1510.62" y1="3226.61" x2="1517.72" y2="3253.71"/><line class="cls-2" x1="1313.92" y1="3265.11" x2="1321.52" y2="3292.11"/><line class="cls-2" x1="1118.52" y1="3301.01" x2="1124.02" y2="3328.41"/><line class="cls-2" x1="901.82" y1="3286.71" x2="893.12" y2="3313.31"/><line class="cls-2" x1="719.82" y1="3164.51" x2="700.02" y2="3184.31"/><line class="cls-2" x1="625.42" y1="2968.31" x2="598.22" y2="2975.21"/><line class="cls-2" x1="587.02" y1="2772.31" x2="559.72" y2="2778.61"/><line class="cls-2" x1="510.72" y1="2381.01" x2="483.32" y2="2387.01"/><line class="cls-2" x1="548.32" y1="2576.41" x2="520.92" y2="2582.41"/><line class="cls-2" x1="472.92" y1="2183.51" x2="445.42" y2="2188.51"/><line class="cls-2" x1="490.62" y1="1926.51" x2="464.02" y2="1917.71"/><line class="cls-2" x1="633.32" y1="1713.61" x2="615.02" y2="1692.41"/><line class="cls-2" x1="864.92" y1="1601.41" x2="859.82" y2="1573.81"/><line class="cls-2" x1="1122.52" y1="1618.41" x2="1133.12" y2="1592.51"/><line class="cls-2" x1="1336.42" y1="1763.61" x2="1357.62" y2="1745.31"/><line class="cls-2" x1="1448.62" y1="1993.71" x2="1476.32" y2="1989.61"/><line class="cls-2" x1="1567.52" y1="2240.41" x2="1588.52" y2="2221.71"/><line class="cls-2" x1="1793.72" y1="2389.81" x2="1801.72" y2="2363.01"/><line class="cls-2" x1="2065.02" y1="2411.01" x2="2058.62" y2="2383.71"/><line class="cls-2" x1="2308.02" y1="2291.41" x2="2290.02" y2="2269.91"/><line class="cls-2" x1="2459.92" y1="2066.11" x2="2434.02" y2="2055.41"/><line class="cls-2" x1="2442.42" y1="1598.31" x2="2414.82" y2="1603.11"/><line class="cls-2" x1="2403.72" y1="1401.71" x2="2376.32" y2="1407.21"/><line class="cls-2" x1="2327.02" y1="1009.71" x2="2299.52" y2="1015.21"/><line class="cls-2" x1="2289.02" y1="812.81" x2="2261.42" y2="817.61"/><line class="cls-2" x1="2250.02" y1="616.61" x2="2222.42" y2="621.31"/><line class="cls-2" x1="2212.42" y1="421.31" x2="2184.82" y2="426.11"/><line class="cls-2" x1="2093.62" y1="175.71" x2="2073.22" y2="195.01"/><line class="cls-2" x1="1868.12" y1="23.91" x2="1859.72" y2="50.71"/><line class="cls-2" x1="1596.92" y1="4.81" x2="1602.42" y2="32.21"/><line class="cls-2" x1="1353.82" y1="124.01" x2="1371.82" y2="145.51"/><line class="cls-2" x1="1122.52" y1="236.61" x2="1127.12" y2="264.21"/><line class="cls-2" x1="864.32" y1="219.71" x2="856.62" y2="246.61"/><line class="cls-2" x1="691.92" y1="158.61" x2="682.32" y2="184.91"/><line class="cls-2" x1="419.32" y1="139.11" x2="425.72" y2="166.41"/><line class="cls-2" x1="175.22" y1="258.61" x2="194.12" y2="279.31"/><line class="cls-2" x1="23.62" y1="484.31" x2="50.42" y2="492.41"/><line class="cls-2" x1="4.52" y1="754.41" x2="31.92" y2="748.71"/><line class="cls-2" x1="121.62" y1="998.01" x2="144.02" y2="981.21"/><line class="cls-2" x1="349.72" y1="1149.91" x2="356.82" y2="1122.81"/><line class="cls-2" x1="620.12" y1="1169.11" x2="613.72" y2="1141.91"/><line class="cls-2" x1="863.12" y1="1052.71" x2="846.12" y2="1030.51"/><line class="cls-2" x1="863.12" y1="1050.71" x2="844.42" y2="1029.81"/><line class="cls-2" x1="1015.32" y1="825.61" x2="988.92" y2="816.21"/><line class="cls-2" x1="1049.22" y1="730.41" x2="1022.32" y2="722.31"/><line class="cls-2" x1="1170.52" y1="551.01" x2="1152.02" y2="529.91"/><line class="cls-2" x1="1365.82" y1="455.21" x2="1359.92" y2="427.81"/><line class="cls-2" x1="1582.62" y1="470.71" x2="1592.02" y2="444.31"/><line class="cls-2" x1="1764.12" y1="591.71" x2="1785.22" y2="573.21"/><line class="cls-2" x1="1859.12" y1="786.81" x2="1886.92" y2="783.11"/><line class="cls-2" x1="1844.12" y1="1004.81" x2="1870.32" y2="1014.81"/><line class="cls-2" x1="1722.12" y1="1185.71" x2="1740.42" y2="1206.91"/><line class="cls-2" x1="1525.02" y1="1280.21" x2="1531.52" y2="1307.41"/><line class="cls-2" x1="1309.12" y1="1265.41" x2="1300.62" y2="1292.11"/><line class="cls-2" x1="1128.62" y1="1143.41" x2="1107.72" y2="1162.01"/><line class="cls-2" x1="2511.42" y1="2984.31" x2="2501.22" y2="3010.31"/><line class="cls-2" x1="2363.82" y1="2886.31" x2="2342.02" y2="2904.01"/><line class="cls-2" x1="2286.42" y1="2724.41" x2="2259.22" y2="2731.11"/><line class="cls-2" x1="2398.62" y1="2399.61" x2="2378.82" y2="2379.81"/><line class="cls-2" x1="2557.82" y1="2321.91" x2="2552.02" y2="2294.51"/><line class="cls-2" x1="2736.82" y1="2334.81" x2="2744.72" y2="2307.91"/><line class="cls-2" x1="2881.52" y1="2435.31" x2="2905.52" y2="2415.81"/><line class="cls-2" x1="2959.92" y1="2593.71" x2="2990.32" y2="2588.61"/><line class="cls-2" x1="2948.82" y1="2770.91" x2="2978.02" y2="2780.91"/><line class="cls-2" x1="2847.32" y1="2919.11" x2="2868.12" y2="2941.91"/><line class="cls-2" x1="2298.42" y1="2548.81" x2="2272.02" y2="2539.31"/><path class="cls-3" d="M1785.7,1268.2a363.38,363.38,0,0,0,16.2,58c3.9,10.6,8.1,20.5,12.4,29.6,64.2,117.4,122.9,196.1,286.2,238.5,314.7,81.7,583.7-213.4,519.4-493.4C2549,703.2,1912,578,1768.2,1139.3c-26.8,68.8-77,154.8-152,222.2-156.8,127.8-328.8,158.9-512.5,97.7-177.7-59.2-271-215.3-271-215.3-114.9-172-112.1-480.1,101.1-667.7,236.6-201.1,510-99.1,510-99.1l176.1,60.5s247.6,108.2,497.1-95.4,504.5-99.1,504.5-99.1c311.9,121.1,341.2,390.7,341.2,390.7l267.8,1375.8s31.9,119.2-19.7,270.6c-65.4,219.4-350.8,429.3-660.4,319.2s-339.8-392.8-339.8-392.8c-15.8-70.2-82.6-290.3-330.9-378.3-247.4-87.7-444.1,53.1-489.6,93.6-1.8,1.6-3.5,3.3-5.2,5-36.9,37.6-93.7,81.6-142.9,213-50.2,134.1-17.9,258.6-17.9,258.6l74.3,393.5s59.8,286.9,76.4,392.8,97,198.8,97,198.8a11,11,0,0,0,1,1.1c101.9,114.1,261.5,165.9,402.8,138.5l391.4-77L3250,3357l197.4-40.6c71.5-9.6,128.6-51.6,161.7-77.7s81.2-82.6,102.5-149.3c11-39.9,26.8-94.2,11-182.3s-72.2-152.7-78.4-161-63.3-72.2-150.6-103.2-182.3-11-182.3-11-91.5,16.5-161.7,79.1-89.8,118.8-101.1,153.4c-12.4,37.8-26.1,86-11.7,176.1s79.1,162.3,79.1,162.3,46.1,66.7,149.3,101.8,180.2,14.4,180.2,14.4l196.7-39.2s0,3.4,197.4-38.5,282.7-172,320.6-279.3,15.8-219.4,15.8-219.4L3930.3,1472l-71.6-364.6-7.3,1.4s-4.6-11.9,4.6-13.8,21.1-4.6,21.1-4.6,1.2-.6,2.8,1.8,1.2,10.1,1.2,10.1l-6.1,1.8L4192,2737s22.6,124.4-15,230.8c-18.8,44.9-61.7,137.4-127.9,188.9-67.9,52.7-94.9,75.2-205.4,100.9s-199.9,37.1-199.9,37.1l-192.1,40.4c8.2.5-101.7,20.1-197.2-16.1-72.9-29.9-110.9-57.1-151.2-102.4-.5-.6-1-1.2-1.5-1.7,0,0-75.2-95.9-82.6-171.5,0,0-46.3-197.7,120.6-347.2s416.4-89,516.4,34.9,110.3,248.8,71.5,363.2c-39.4,116.5-142.2,204.5-267.8,237.6L2069.4,3604.3l-191.7,35.8s-144.9,22-228.4-17.4-119.2-49.5-190.8-128.4-100-188-101.8-207.3c-1.8-18.4-76.1-394.4-76.1-394.4l-74.3-393.5s-72.5-247.6,161.4-481.5c0,0,212.8-201.8,519.1-105.5,298.1,103.6,340.3,393.5,340.3,393.5s33,272.4,327.4,376.1,496.2-94.5,496.2-94.5,220.1-179.8,159.6-475.1c-39.4-201.8-148.6-786-148.6-786L2947.1,738.2S2904.9,464,2616.9,358.5c-290.8-86.2-464.4,77-492.5,96.3-27.1,18.6-81.6,86.7-241.2,119.2-165.1,22.9-222.1-7.4-271.5-19.3-57.8-13.9-223.7-114.6-432-77C963.2,521.1,854,664.2,800.8,804.6c0,0-97.9,269.3,95.4,494.4,285.3,305.4,633.8,131.2,709,50.4,74.3-62.4,125.2-163.3,145.8-219.2,13.8-56,89-332,364.1-382.5,274-40.4,537.5,145.8,533.3,454.9-11.4,176.1-106,274.1-153.6,316.5-109.1,97.2-283.4,142.2-438.4,84.4-84.2-31.4-149.7-73.9-197.6-138.4-57.2-77.1-82.4-151.3-90.4-189.9Z" transform="translate(-756.08 -315.29)"/><image class="cls-4" width="685" height="181" transform="translate(3358.87 1864.63) rotate(80.73) scale(0.38)" xlink:href="../../train%202.png"/><path class="cls-5" d="M4865.75,1048.56v-33.3h4.9v33.3Zm1-14.3v-4.5h19.7v4.5Zm15.7,14.3v-33.3h4.9v33.3Z" transform="translate(-756.08 -315.29)"/><path class="cls-5" d="M4901.05,1049.06c-2.6,0-4.6-.6-6-1.9a6.78,6.78,0,0,1-2.1-5.3,7,7,0,0,1,2.9-6c1.9-1.4,4.7-2.1,8.3-2.1a24.15,24.15,0,0,1,4,.3,12.73,12.73,0,0,1,3.1.8l-1,3.4a16.45,16.45,0,0,0-3.1-.4c-1,0-2-.1-3.1-.1-4.3,0-6.5,1.3-6.5,3.9a3.1,3.1,0,0,0,1.1,2.5,4.89,4.89,0,0,0,3.2.9,9.35,9.35,0,0,0,3.9-.8,5.09,5.09,0,0,0,2.3-2,5,5,0,0,0,.8-2.6V1037l1.5,6.4h-2l.8-.8a5.85,5.85,0,0,1-3.8,5.8A11.41,11.41,0,0,1,4901.05,1049.06Zm8.7-.3-.3-7.4-.7-2.1v-6.4a4,4,0,0,0-1.7-3.6,10.92,10.92,0,0,0-5.2-1.3l-6-.2.5-4.4,5,.1c4.1.1,7.2.9,9.2,2.7a9.43,9.43,0,0,1,3,7.5v10.4l4.2.5v4Z" transform="translate(-756.08 -315.29)"/><path class="cls-5" d="M4930.85,1049.06c-1.9,0-3.5-.1-4.8-.2a36.89,36.89,0,0,1-3.7-.5l.6-4.5c1.6.3,3.1.4,4.3.6a21.74,21.74,0,0,0,3.6.2,15.23,15.23,0,0,0,5.5-.7,2.42,2.42,0,0,0,1.7-2.4,2.2,2.2,0,0,0-.6-1.7,3.8,3.8,0,0,0-1.8-.9l-5.7-1.5a13.78,13.78,0,0,1-5.4-2.3,5.14,5.14,0,0,1-1.7-4.2,6.26,6.26,0,0,1,3.1-5.9c2.1-1.2,5.4-1.8,10.1-1.8,1.2,0,2.3,0,3.4.1s2.1.2,3.2.4l-.5,4.3c-1.3-.1-2.4-.2-3.4-.3a27.15,27.15,0,0,0-2.8-.1,17.33,17.33,0,0,0-6,.7,2.6,2.6,0,0,0-1.9,2.3,1.94,1.94,0,0,0,.8,1.6,7.09,7.09,0,0,0,2.4.9l4.6,1.1a13.83,13.83,0,0,1,5.7,2.5,5.74,5.74,0,0,1,1.8,4.6,6.34,6.34,0,0,1-2.9,5.8C4938.55,1048.36,4935.15,1049.06,4930.85,1049.06Z" transform="translate(-756.08 -315.29)"/><path class="cls-5" d="M4957.25,1049.06c-2.6,0-4.6-.6-6-1.9a6.78,6.78,0,0,1-2.1-5.3,7,7,0,0,1,2.9-6c1.9-1.4,4.7-2.1,8.3-2.1a24.15,24.15,0,0,1,4,.3,12.73,12.73,0,0,1,3.1.8l-1,3.4a16.45,16.45,0,0,0-3.1-.4c-1,0-2-.1-3.1-.1-4.3,0-6.5,1.3-6.5,3.9a3.1,3.1,0,0,0,1.1,2.5,4.89,4.89,0,0,0,3.2.9,9.35,9.35,0,0,0,3.9-.8,5.09,5.09,0,0,0,2.3-2,5,5,0,0,0,.8-2.6V1037l1.5,6.4h-2l.8-.8a5.85,5.85,0,0,1-3.8,5.8A11.08,11.08,0,0,1,4957.25,1049.06Zm8.8-.3-.3-7.4-.7-2.1v-6.4a4,4,0,0,0-1.7-3.6,10.92,10.92,0,0,0-5.2-1.3l-6-.2.5-4.4,5,.1c4.1.1,7.2.9,9.2,2.7a9.43,9.43,0,0,1,3,7.5v10.4l4.2.5v4Z" transform="translate(-756.08 -315.29)"/><path class="cls-5" d="M4979,1048.56v-24.8h4.5l.5,5.3v19.6h-5Zm15.2,0v-16.2a4.79,4.79,0,0,0-1.2-3.5,4.46,4.46,0,0,0-3.3-1.2c-3.9,0-5.9,2.3-5.9,6.9l-1.5-6.4h1.9a4.89,4.89,0,0,1,1.8-3.7,9.29,9.29,0,0,1,10.8,1.2,9.91,9.91,0,0,1,2.2,6.8v16.2h-4.8Z" transform="translate(-756.08 -315.29)"/><path class="cls-5" d="M5034.75,1048.56v-33.3h4.9v33.3Zm2.9-10.6.4-4.6a12.12,12.12,0,0,0,6.2-1.5,13,13,0,0,0,4.3-4.1,17.88,17.88,0,0,0,2.5-5.8,30,30,0,0,0,.8-6.7h4.8a26.53,26.53,0,0,1-1.3,8.5,24.18,24.18,0,0,1-3.8,7.3,18.36,18.36,0,0,1-6,5.1A15.63,15.63,0,0,1,5037.65,1038Zm15.1,10.6-8.4-16.2,4.2-2.4,9.9,18.6Z" transform="translate(-756.08 -315.29)"/><path class="cls-5" d="M5069.75,1049.06c-2.6,0-4.6-.6-6-1.9a6.78,6.78,0,0,1-2.1-5.3,7,7,0,0,1,2.9-6c1.9-1.4,4.7-2.1,8.3-2.1a24.15,24.15,0,0,1,4,.3,12.73,12.73,0,0,1,3.1.8l-1,3.4a16.45,16.45,0,0,0-3.1-.4c-1,0-2-.1-3.1-.1-4.3,0-6.5,1.3-6.5,3.9a3.1,3.1,0,0,0,1.1,2.5,4.89,4.89,0,0,0,3.2.9,9.35,9.35,0,0,0,3.9-.8,5.09,5.09,0,0,0,2.3-2,5,5,0,0,0,.8-2.6V1037l1.5,6.4h-2l.8-.8a5.85,5.85,0,0,1-3.8,5.8A11.08,11.08,0,0,1,5069.75,1049.06Zm8.8-.3-.3-7.4-.7-2.1v-6.4a4,4,0,0,0-1.7-3.6,10.92,10.92,0,0,0-5.2-1.3l-6-.2.5-4.4,5,.1c4.1.1,7.2.9,9.2,2.7a9.43,9.43,0,0,1,3,7.5v10.4l4.2.5v4Z" transform="translate(-756.08 -315.29)"/><path class="cls-5" d="M5104,1049.06c-4.2,0-7.5-1.1-9.8-3.3s-3.5-5.4-3.5-9.6,1.1-7.2,3.3-9.5,5.3-3.4,9.3-3.4a13.2,13.2,0,0,1,6.2,1.3,8,8,0,0,1,3.7,3.8l-3.8,2.9a7.23,7.23,0,0,0-6.3-3.5,7.23,7.23,0,0,0-5.5,2.1c-1.3,1.4-1.9,3.4-1.9,6a8.87,8.87,0,0,0,2.3,6.5c1.5,1.5,3.7,2.2,6.5,2.2,1.2,0,2.3-.1,3.5-.2s2.3-.3,3.4-.4l.6,4.4a25.68,25.68,0,0,1-4,.6C5106.55,1049.06,5105.25,1049.06,5104,1049.06Z" transform="translate(-756.08 -315.29)"/><path class="cls-5" d="M5119.55,1048.56v-35.2h5v35.2Zm15.3,0v-16.2a4.89,4.89,0,0,0-1.2-3.6,4.52,4.52,0,0,0-3.3-1.3c-3.9,0-5.9,2.4-5.9,7.1l-1.5-6.4h1.9a4.89,4.89,0,0,1,1.8-3.7,9.29,9.29,0,0,1,10.8,1.2,9.91,9.91,0,0,1,2.2,6.8v16.2h-4.8Z" transform="translate(-756.08 -315.29)"/><path class="cls-5" d="M5154.15,1049.06c-2.6,0-4.6-.6-6-1.9a6.78,6.78,0,0,1-2.1-5.3,7,7,0,0,1,2.9-6c1.9-1.4,4.7-2.1,8.3-2.1a24.15,24.15,0,0,1,4,.3,12.73,12.73,0,0,1,3.1.8l-1,3.4a16.45,16.45,0,0,0-3.1-.4c-1,0-2-.1-3.1-.1-4.3,0-6.5,1.3-6.5,3.9a3.1,3.1,0,0,0,1.1,2.5,4.89,4.89,0,0,0,3.2.9,9.35,9.35,0,0,0,3.9-.8,5.09,5.09,0,0,0,2.3-2,5,5,0,0,0,.8-2.6V1037l1.5,6.4h-2l.8-.8a5.85,5.85,0,0,1-3.8,5.8A11.41,11.41,0,0,1,5154.15,1049.06Zm8.8-.3-.3-7.4-.7-2.1v-6.4a4,4,0,0,0-1.7-3.6,10.92,10.92,0,0,0-5.2-1.3l-6-.2.5-4.4,5,.1c4.1.1,7.2.9,9.2,2.7a9.43,9.43,0,0,1,3,7.5v10.4l4.2.5v4Z" transform="translate(-756.08 -315.29)"/><path class="cls-5" d="M5174.15,1017.76v-4.4h7.7v4.4Zm15.5,31.3c-2.9,0-5-.8-6.2-2.3s-1.9-4.1-1.9-7.5v-25.8h5V1039a9.6,9.6,0,0,0,.4,3.2,3,3,0,0,0,1.5,1.8,7,7,0,0,0,3.2.6,18.28,18.28,0,0,0,5-.9l.6,4.4c-1.3.3-2.5.6-3.6.8A25.5,25.5,0,0,1,5189.65,1049.06Z" transform="translate(-756.08 -315.29)"/><path class="cls-5" d="M4932.86,1151.25l9.6-33.3h6.8l9.6,33.3H4954l-7.9-29.3h-.4l-7.9,29.3Zm4.5-8.2v-4.5h16.9v4.5Z" transform="translate(-756.08 -315.29)"/><path class="cls-5" d="M4962.26,1120.45v-4.4h7.7v4.4Zm15.5,31.2c-2.9,0-5-.8-6.2-2.3s-1.9-4.1-1.9-7.5v-25.8h5v25.5a9.6,9.6,0,0,0,.4,3.2,3,3,0,0,0,1.5,1.8,7,7,0,0,0,3.2.6,18.28,18.28,0,0,0,5-.9l.6,4.4c-1.3.3-2.5.6-3.6.8A25.5,25.5,0,0,1,4977.76,1151.65Z" transform="translate(-756.08 -315.29)"/><path class="cls-5" d="M4990.46,1136.75v-4.4h23.4v4.4Z" transform="translate(-756.08 -315.29)"/><path class="cls-5" d="M5020,1151.25v-35.2h5v35.2Zm3.5-9.5v-4.5h2.8a10.71,10.71,0,0,0,5.1-1.1,7.15,7.15,0,0,0,3.1-3.5,26.57,26.57,0,0,0,1.7-6.4h5.2c-.7,5.2-2.1,9-4.4,11.6s-5.4,3.8-9.5,3.8h-4Zm13.3,9.5-7.1-12.1,4.7-1.9,8.5,14Z" transform="translate(-756.08 -315.29)"/><path class="cls-5" d="M5054.76,1151.65c-2.6,0-4.6-.6-6-1.9a6.78,6.78,0,0,1-2.1-5.3,7,7,0,0,1,2.9-6c1.9-1.4,4.7-2.1,8.3-2.1a24.15,24.15,0,0,1,4,.3,12.73,12.73,0,0,1,3.1.8l-1,3.4a16.45,16.45,0,0,0-3.1-.4c-1,0-2-.1-3.1-.1-4.3,0-6.5,1.3-6.5,3.9a3.1,3.1,0,0,0,1.1,2.5,4.89,4.89,0,0,0,3.2.9,9.35,9.35,0,0,0,3.9-.8,5.09,5.09,0,0,0,2.3-2,5,5,0,0,0,.8-2.6v-2.7l1.5,6.4h-2l.8-.8a5.85,5.85,0,0,1-3.8,5.8A11.41,11.41,0,0,1,5054.76,1151.65Zm8.8-.2-.3-7.4-.7-2.1v-6.4a4,4,0,0,0-1.7-3.6,10.92,10.92,0,0,0-5.2-1.3l-6-.2.5-4.4,5,.1c4.1.1,7.2.9,9.2,2.7a9.43,9.43,0,0,1,3,7.5v10.4l4.2.5v4Z" transform="translate(-756.08 -315.29)"/><path class="cls-5" d="M5074.06,1136.05V1132h21.6v4.1Zm5,15.2v-22.7q0-12.9,12-12.9a26.26,26.26,0,0,1,4.9.5l-.5,4.3c-.9-.1-1.8-.2-2.5-.3a14.77,14.77,0,0,0-2.1-.1c-4.6,0-6.9,2.7-6.9,8.2v23Zm12.6,0v-19.2h5v19.2Z" transform="translate(-756.08 -315.29)"/><path class="cls-5" d="M5102.46,1151.25v-4.4h16.6v4.4Zm.9-20.5v-4.4h8.3l.5,4.4Zm4.6,20.5v-24.8h4l.9,7.1v17.7Zm5-10.7-1.5-7.8h1.9c.3-4.6,2.6-6.8,6.8-6.8,2.6,0,4.4.7,5.6,2.2s1.7,3.8,1.7,7.1h-4.9a7.58,7.58,0,0,0-.8-3.9,2.86,2.86,0,0,0-2.6-1.2,5,5,0,0,0-4.7,2.7C5113.46,1134.65,5113,1137.15,5113,1140.55Z" transform="translate(-756.08 -315.29)"/><path class="cls-5" d="M5140.36,1151.65a8.22,8.22,0,0,1-6.1-2.3c-1.5-1.5-2.1-3.7-2.1-6.6v-16.4h5v16.4a4.46,4.46,0,0,0,1.2,3.3,4.7,4.7,0,0,0,3.4,1.2,5.06,5.06,0,0,0,4.1-1.7c.9-1.1,1.4-3.1,1.4-5.8l1.3,6.7H5147a6.94,6.94,0,0,1-2.3,3.9A6.68,6.68,0,0,1,5140.36,1151.65Zm6.9-7.5v-17.8h5v16.4Zm.4,7.3-.4-6v-4.4h5v5.6l3.4.5v4Z" transform="translate(-756.08 -315.29)"/><path class="cls-5" d="M5160.76,1151.25v-24.8h4.5l.5,5.3v19.6h-5Zm15.3,0v-16.2a4.79,4.79,0,0,0-1.2-3.5,4.46,4.46,0,0,0-3.3-1.2c-3.9,0-5.9,2.3-5.9,6.9l-1.5-6.4h1.9a4.89,4.89,0,0,1,1.8-3.7,9.29,9.29,0,0,1,10.8,1.2,9.91,9.91,0,0,1,2.2,6.8v16.2h-4.8Z" transform="translate(-756.08 -315.29)"/><path class="cls-5" d="M4860,939l9.6-33.3h6.8L4886,939h-4.9l-7.9-29.3h-.4l-7.9,29.3Zm4.4-8.1v-4.5h16.9v4.5Z" transform="translate(-756.08 -315.29)"/><path class="cls-5" d="M4917.43,908.17v-4.4h7.7v4.4Zm15.5,31.3c-2.9,0-5-.8-6.2-2.3s-1.9-4.1-1.9-7.5v-25.8h5v25.5a9.6,9.6,0,0,0,.4,3.2,3,3,0,0,0,1.5,1.8,7,7,0,0,0,3.2.6,18.28,18.28,0,0,0,5-.9l.6,4.4c-1.3.3-2.5.6-3.6.8A24.87,24.87,0,0,1,4932.93,939.47Z" transform="translate(-756.08 -315.29)"/><path class="cls-5" d="M4957.33,939.47a9.81,9.81,0,0,1-8-3.4c-1.9-2.3-2.9-5.4-2.9-9.5s1-7.3,2.9-9.5a10.12,10.12,0,0,1,8-3.4c3.5,0,6.1,1.1,8,3.4s2.8,5.4,2.8,9.5-.9,7.3-2.8,9.5A10,10,0,0,1,4957.33,939.47Zm0-4.5a4.73,4.73,0,0,0,4.2-2.2,10.93,10.93,0,0,0,1.5-6.2,10.71,10.71,0,0,0-1.5-6.2,5,5,0,0,0-4.2-2.2,4.73,4.73,0,0,0-4.2,2.2,10.93,10.93,0,0,0-1.5,6.2,10.71,10.71,0,0,0,1.5,6.2A5,5,0,0,0,4957.33,935Z" transform="translate(-756.08 -315.29)"/><path class="cls-5" d="M4975.33,939v-24.8h4.5l.5,5.3v19.6h-5Zm15.3,0v-16.2a4.79,4.79,0,0,0-1.2-3.5,4.46,4.46,0,0,0-3.3-1.2c-3.9,0-5.9,2.3-5.9,6.9l-1.5-6.4h1.9a4.89,4.89,0,0,1,1.8-3.7,9.29,9.29,0,0,1,10.8,1.2,9.91,9.91,0,0,1,2.2,6.8v16.2h-4.8Z" transform="translate(-756.08 -315.29)"/><path class="cls-5" d="M5011.73,939.47a8.91,8.91,0,0,1-7.4-3.2c-1.7-2.1-2.5-5.3-2.5-9.4,0-4.3.8-7.6,2.5-9.8s4.1-3.3,7.4-3.3a7.69,7.69,0,0,1,4.7,1.3,5.19,5.19,0,0,1,2.1,3.7h1.9l-1.7,7.1c0-2.6-.5-4.5-1.5-5.8a5.29,5.29,0,0,0-4.4-2,5.09,5.09,0,0,0-4.5,2.3c-1,1.5-1.5,3.7-1.5,6.7q0,4.2,1.5,6.3a5.86,5.86,0,0,0,8.9.1,9.55,9.55,0,0,0,1.5-5.8l1.7,7.1h-2.2a5.09,5.09,0,0,1-2,3.7C5015,939.37,5013.63,939.47,5011.73,939.47Zm-7.9,10.7-.2-4.5,8-.2c2.5-.1,4.3-.8,5.5-2.1s1.7-3.2,1.7-5.8v-18.1l.5-5.3h4.5v22.6c0,4.4-1,7.7-3,9.8s-5.2,3.2-9.6,3.4Z" transform="translate(-756.08 -315.29)"/><path class="cls-5" d="M5060.23,939l-2.8-24.8h4.7l1.9,21.1h.4l2.9-21.1h4.5l-2.1,5.1h-.3l-2.9,19.7Zm12.4,0-2.9-19.7h-.4l-2-5.1h4.5l2.9,21.1h.4l2.1-21.1h4.9l-3.5,24.8Z" transform="translate(-756.08 -315.29)"/><path class="cls-5" d="M5087.83,939v-35.2h5V939Zm15.3,0v-16.2a4.89,4.89,0,0,0-1.2-3.6,4.52,4.52,0,0,0-3.3-1.3c-3.9,0-5.9,2.4-5.9,7.1l-1.5-6.4h1.9a4.89,4.89,0,0,1,1.8-3.7,9.29,9.29,0,0,1,10.8,1.2,9.91,9.91,0,0,1,2.2,6.8v16.2h-4.8Z" transform="translate(-756.08 -315.29)"/><path class="cls-5" d="M5115.83,939v-4.4h9.9V939Zm1.4-20.5v-4.4h13v4.4Zm10.4-8.2a3,3,0,0,1-2.4-1,3.69,3.69,0,0,1-1-2.4,3.32,3.32,0,0,1,1-2.5,3.25,3.25,0,0,1,2.4-1,3.42,3.42,0,0,1,3.5,3.5,3,3,0,0,1-1,2.4A4,4,0,0,1,5127.63,910.27Zm-2.4,28.7v-23.4h5V939Zm4.5,0v-4.4h8.1V939Z" transform="translate(-756.08 -315.29)"/><path class="cls-5" d="M5142.43,908.17v-4.4h7.7v4.4Zm15.5,31.3c-2.9,0-5-.8-6.2-2.3s-1.9-4.1-1.9-7.5v-25.8h5v25.5a9.6,9.6,0,0,0,.4,3.2,3,3,0,0,0,1.5,1.8,7,7,0,0,0,3.2.6,18.28,18.28,0,0,0,5-.9l.6,4.4c-1.3.3-2.5.6-3.6.8A24.87,24.87,0,0,1,5157.93,939.47Z" transform="translate(-756.08 -315.29)"/><path class="cls-5" d="M5184.53,939.47c-4.2,0-7.5-1.1-9.8-3.3s-3.5-5.4-3.5-9.6,1-7.2,2.9-9.5,4.7-3.4,8.3-3.4q5.1,0,7.8,3c1.8,2,2.8,5,2.8,8.9,0,1.1,0,2.2-.1,3.2h-17.4V925h13.1a7.26,7.26,0,0,0-1.6-5.1,5.58,5.58,0,0,0-4.4-1.8,5.86,5.86,0,0,0-4.9,2.2,9.42,9.42,0,0,0-1.7,6.1q0,4.35,2.4,6.6a9.64,9.64,0,0,0,6.8,2.3c1,0,2-.1,3-.2s2-.3,3-.5l.6,4.4a20.76,20.76,0,0,1-4,.5Z" transform="translate(-756.08 -315.29)"/><path class="cls-5" d="M5045.8,1255.58l9.6-33.3h6.8l9.6,33.3h-4.9l-7.9-29.3h-.4l-7.9,29.3Zm4.5-8.1V1243h16.9v4.5Z" transform="translate(-756.08 -315.29)"/><path class="cls-5" d="M5076.7,1255.58v-35.1h5v34.7Zm6.7.5c-1.1,0-2.2,0-3.3-.1l-3.3-.3,1.9-4.5a7.67,7.67,0,0,0,2.7.7c1,.1,2,.1,3,.1a8.75,8.75,0,0,0,6.9-2.7c1.6-1.8,2.4-4.3,2.4-7.6a7.87,7.87,0,0,0-1.5-5.2,5.17,5.17,0,0,0-4.2-1.8c-4.2,0-6.3,2.4-6.3,7.1l-1.5-6.4h1.9c.2-3.3,2.3-5,6.1-5a10.18,10.18,0,0,1,7.7,2.9c1.8,1.9,2.7,4.7,2.7,8.3,0,4.6-1.3,8.2-4,10.7S5088.2,1256.08,5083.4,1256.08Z" transform="translate(-756.08 -315.29)"/><path class="cls-5" d="M5115.1,1256.08a9.81,9.81,0,0,1-8-3.4c-1.9-2.3-2.9-5.4-2.9-9.5s1-7.3,2.9-9.5a10.12,10.12,0,0,1,8-3.4c3.5,0,6.1,1.1,8,3.4s2.8,5.4,2.8,9.5-.9,7.3-2.8,9.5A10.12,10.12,0,0,1,5115.1,1256.08Zm0-4.4a4.73,4.73,0,0,0,4.2-2.2,10.93,10.93,0,0,0,1.5-6.2,10.71,10.71,0,0,0-1.5-6.2,5,5,0,0,0-4.2-2.2,4.73,4.73,0,0,0-4.2,2.2,10.93,10.93,0,0,0-1.5,6.2,10.71,10.71,0,0,0,1.5,6.2A4.83,4.83,0,0,0,5115.1,1251.68Z" transform="translate(-756.08 -315.29)"/><path class="cls-5" d="M5140.8,1256.08a8.22,8.22,0,0,1-6.1-2.3c-1.5-1.5-2.1-3.7-2.1-6.6v-16.4h5v16.4a4.46,4.46,0,0,0,1.2,3.3,4.7,4.7,0,0,0,3.4,1.2,5.06,5.06,0,0,0,4.1-1.7c.9-1.1,1.4-3.1,1.4-5.8l1.3,6.7h-1.6a6.94,6.94,0,0,1-2.3,3.9A6.87,6.87,0,0,1,5140.8,1256.08Zm6.9-7.5v-17.8h5v16.4Zm.4,7.3-.4-6v-4.4h5v5.6l3.4.5v4Z" transform="translate(-756.08 -315.29)"/><path class="cls-5" d="M5158.9,1235.18v-4.4h22.5v4.4Zm6.2,8.7v-20.6h5v20.6Zm10.7,12.2c-3.8,0-6.5-.8-8.2-2.3s-2.5-4.1-2.5-7.5v-4.2h5v4a5.84,5.84,0,0,0,1.4,4.3c.9.9,2.5,1.3,4.7,1.3a21.75,21.75,0,0,0,2.5-.1l3-.3.6,4.4c-1.1.2-2.2.3-3.2.4S5177,1256.08,5175.8,1256.08Z" transform="translate(-756.08 -315.29)"/><path class="cls-5" d="M4765.78,817.17c-10.3,0-17.5-5.7-17.5-17.2q0-8.1,3.9-12.6c2.6-3,8.3-4.5,13-4.5a15.67,15.67,0,0,1,6,1.1,7.66,7.66,0,0,1,3.7,3.1l-3.5,3.4a7.19,7.19,0,0,0-2.7-2.5,7.3,7.3,0,0,0-3.5-.9c-3,0-7.4,1.1-9.3,3.3s-2.7,5.3-2.7,9.3c0,8.7,5.8,13.1,13.3,13.1a17.49,17.49,0,0,0,6.7-1.4l1.1,4.1A20.19,20.19,0,0,1,4765.78,817.17Z" transform="translate(-756.08 -315.29)"/><path class="cls-5" d="M4786.78,817.17c-2.6,0-4.6-.6-6-1.9a6.78,6.78,0,0,1-2.1-5.3,7,7,0,0,1,2.9-6c1.9-1.4,4.7-2.1,8.3-2.1a24.15,24.15,0,0,1,4,.3,12.73,12.73,0,0,1,3.1.8l-1,3.4a16.45,16.45,0,0,0-3.1-.4c-1,0-2-.1-3.1-.1-4.3,0-6.5,1.3-6.5,3.9a3.1,3.1,0,0,0,1.1,2.5,4.89,4.89,0,0,0,3.2.9,9.35,9.35,0,0,0,3.9-.8,5.09,5.09,0,0,0,2.3-2,5,5,0,0,0,.8-2.6v-2.7l1.5,6.4h-2l.8-.8a5.85,5.85,0,0,1-3.8,5.8A11.41,11.41,0,0,1,4786.78,817.17Zm8.8-.2-.3-7.4-.7-2.1v-6.4a4,4,0,0,0-1.7-3.6,10.92,10.92,0,0,0-5.2-1.3l-6-.2.5-4.4,5,.1c4.1.1,7.2.9,9.2,2.7a9.43,9.43,0,0,1,3,7.5v10.4l4.2.5v4Z" transform="translate(-756.08 -315.29)"/><path class="cls-5" d="M4806.18,796.27v-4.4h22.5v4.4Zm6.2,8.7v-20.6h5V805Zm10.7,12.2c-3.8,0-6.5-.8-8.2-2.3s-2.5-4.1-2.5-7.5v-4.2h5v4a5.84,5.84,0,0,0,1.4,4.3c.9.9,2.5,1.3,4.7,1.3a21.75,21.75,0,0,0,2.5-.1l3-.3.6,4.4c-1.1.2-2.2.3-3.2.4S4824.18,817.17,4823.08,817.17Z" transform="translate(-756.08 -315.29)"/><path class="cls-5" d="M4849.08,817.17c-4.2,0-7.5-1.1-9.8-3.3s-3.5-5.4-3.5-9.6,1.1-7.2,3.3-9.5,5.3-3.4,9.3-3.4a13.2,13.2,0,0,1,6.2,1.3,8,8,0,0,1,3.7,3.8l-3.8,2.9a7.23,7.23,0,0,0-6.3-3.5,7.23,7.23,0,0,0-5.5,2.1c-1.3,1.4-1.9,3.4-1.9,6a8.87,8.87,0,0,0,2.3,6.5c1.5,1.5,3.7,2.2,6.5,2.2,1.2,0,2.3-.1,3.5-.2s2.3-.3,3.4-.4l.6,4.4a25.68,25.68,0,0,1-4,.6C4851.68,817.17,4850.38,817.17,4849.08,817.17Z" transform="translate(-756.08 -315.29)"/><path class="cls-5" d="M4864.68,816.67v-35.1h5v35.2h-5Zm15.3,0v-16.1a4.89,4.89,0,0,0-1.2-3.6,4.52,4.52,0,0,0-3.3-1.3c-3.9,0-5.9,2.4-5.9,7.1l-1.5-6.4h1.9a4.89,4.89,0,0,1,1.8-3.7,9.29,9.29,0,0,1,10.8,1.2,9.91,9.91,0,0,1,2.2,6.8v16.2H4880Z" transform="translate(-756.08 -315.29)"/><path class="cls-5" d="M4920,816.67v-33.3h4.7v33.3Zm8.9-13.5-3.6-13.8h-1.4v-5.9h3.3l3.6,14.3h.2l.5,5.4Zm1.4,0,.7-5.4h.3l3.6-14.3h3.3v5.9h-1.4l-3.6,13.8Zm7.2,13.5v-33.3h4.7v33.3Z" transform="translate(-756.08 -315.29)"/><path class="cls-5" d="M4961.38,817.17c-4.2,0-7.5-1.1-9.8-3.3s-3.5-5.4-3.5-9.6,1-7.2,2.9-9.5,4.7-3.4,8.3-3.4q5.1,0,7.8,3c1.8,2,2.8,5,2.8,8.9,0,1.1,0,2.2-.1,3.2h-17.4v-3.8h13.1a7.26,7.26,0,0,0-1.6-5.1,5.58,5.58,0,0,0-4.4-1.8,5.86,5.86,0,0,0-4.9,2.2,9.42,9.42,0,0,0-1.7,6.1q0,4.35,2.4,6.6a9.64,9.64,0,0,0,6.8,2.3c1,0,2-.1,3-.2s2-.3,3-.5l.6,4.4a20.76,20.76,0,0,1-4,.5Z" transform="translate(-756.08 -315.29)"/><path class="cls-5" d="M5005.78,816.67l-2.8-24.8h4.7l1.9,21.1h.4l2.9-21.1h4.5l-2.1,5.1h-.3l-2.9,19.7Zm12.5,0-2.9-19.7h-.4l-2-5.1h4.5l2.9,21.1h.4l2.1-21.1h4.9l-3.5,24.8Z" transform="translate(-756.08 -315.29)"/><path class="cls-5" d="M5033.48,816.67v-35.1h5v35.2h-5Zm15.2,0v-16.1a4.89,4.89,0,0,0-1.2-3.6,4.52,4.52,0,0,0-3.3-1.3c-3.9,0-5.9,2.4-5.9,7.1l-1.5-6.4h1.9a4.89,4.89,0,0,1,1.8-3.7,9.29,9.29,0,0,1,10.8,1.2,9.91,9.91,0,0,1,2.2,6.8v16.2h-4.8Z" transform="translate(-756.08 -315.29)"/><path class="cls-5" d="M5071.68,817.17a9.81,9.81,0,0,1-8-3.4c-1.9-2.3-2.9-5.4-2.9-9.5s1-7.3,2.9-9.5a10.12,10.12,0,0,1,8-3.4c3.5,0,6.1,1.1,8,3.4s2.8,5.4,2.8,9.5-.9,7.3-2.8,9.5A10,10,0,0,1,5071.68,817.17Zm0-4.4a4.73,4.73,0,0,0,4.2-2.2,10.93,10.93,0,0,0,1.5-6.2,10.71,10.71,0,0,0-1.5-6.2,5,5,0,0,0-4.2-2.2,4.73,4.73,0,0,0-4.2,2.2,10.93,10.93,0,0,0-1.5,6.2,10.71,10.71,0,0,0,1.5,6.2A5,5,0,0,0,5071.68,812.77Z" transform="translate(-756.08 -315.29)"/><path class="cls-5" d="M5131.38,817.17c-10.3,0-15.5-5.7-15.5-17.2q0-8.1,3.9-12.6c2.6-3,6.3-4.5,11-4.5a15.67,15.67,0,0,1,6,1.1,7.66,7.66,0,0,1,3.7,3.1l-3.5,3.4a7.19,7.19,0,0,0-2.7-2.5,7.3,7.3,0,0,0-3.5-.9,9.16,9.16,0,0,0-7.3,3.3c-1.9,2.2-2.7,5.3-2.7,9.3,0,8.7,3.8,13.1,11.3,13.1a17.49,17.49,0,0,0,6.7-1.4l1.1,4.1A20.19,20.19,0,0,1,5131.38,817.17Z" transform="translate(-756.08 -315.29)"/><path class="cls-5" d="M5152.38,817.17c-2.6,0-4.6-.6-6-1.9a6.78,6.78,0,0,1-2.1-5.3,7,7,0,0,1,2.9-6c1.9-1.4,4.7-2.1,8.3-2.1a24.15,24.15,0,0,1,4,.3,12.73,12.73,0,0,1,3.1.8l-1,3.4a16.45,16.45,0,0,0-3.1-.4c-1,0-2-.1-3.1-.1-4.3,0-6.5,1.3-6.5,3.9a3.1,3.1,0,0,0,1.1,2.5,4.89,4.89,0,0,0,3.2.9,9.35,9.35,0,0,0,3.9-.8,5.09,5.09,0,0,0,2.3-2,5,5,0,0,0,.8-2.6v-2.7l1.5,6.4h-2l.8-.8a5.85,5.85,0,0,1-3.8,5.8A11.08,11.08,0,0,1,5152.38,817.17Zm8.8-.2-.3-7.4-.7-2.1v-6.4a4,4,0,0,0-1.7-3.6,10.92,10.92,0,0,0-5.2-1.3l-6-.2.5-4.4,5,.1c4.1.1,7.2.9,9.2,2.7a9.43,9.43,0,0,1,3,7.5v10.4l4.2.5v4Z" transform="translate(-756.08 -315.29)"/><path class="cls-5" d="M5174.08,816.67v-24.8h4.5l.5,5.3v19.6h-5Zm15.3,0v-16.1a4.79,4.79,0,0,0-1.2-3.5,4.46,4.46,0,0,0-3.3-1.2c-3.9,0-5.9,2.3-5.9,6.9l-1.5-6.4h1.9a4.89,4.89,0,0,1,1.8-3.7,9.29,9.29,0,0,1,10.8,1.2,9.91,9.91,0,0,1,2.2,6.8v16.2h-4.8Z" transform="translate(-756.08 -315.29)"/></svg>